<mxfile host="app.diagrams.net" modified="2022-07-31T11:02:32.619Z" agent="5.0 (iPad; CPU OS 15_5 like Mac OS X) AppleWebKit/605.1.15 (KHTML, like Gecko) CriOS/101.0.4951.58 Mobile/15E148 Safari/604.1" etag="2ZZ_YHEK90IfmBUFFc67" version="20.2.2" type="github">
  <diagram id="nqGrBPYAraOLzGDsaZKS" name="Page-1">
    <mxGraphModel dx="922" dy="526" grid="1" gridSize="10" guides="1" tooltips="1" connect="1" arrows="1" fold="1" page="1" pageScale="1" pageWidth="827" pageHeight="1169" math="0" shadow="0">
      <root>
        <mxCell id="0" />
        <mxCell id="1" parent="0" />
        <mxCell id="UudjNbd99zVe8aSJP8mR-1" value="" style="ellipse;whiteSpace=wrap;html=1;" parent="1" vertex="1">
          <mxGeometry x="270" y="260" width="120" height="80" as="geometry" />
        </mxCell>
      </root>
    </mxGraphModel>
  </diagram>
</mxfile>
